Patient4_TMGait_0pt8_01_left_27_EMG.mot
version=1
nRows=34
nColumns=33
inDegrees=no
endheader
time	1LAddLong	2LGlutMax	3LGlutMed	4LIliopsoas	5LSemiMemb	6LBicFemLong	7LRecFem	8LVastMed	9LVastLat	10LGasMed	11LTibAnt	12lTibPost	13LPeroneusLong	14LSol	15LExtDigLong	16LFlexDigLong	17RAddLong	18RGlutMax	19RGlutMed	20RIliopsoas	21RSemiMemb	22RBicFemLong	23RRecFem	24RVastMed	25RVastLat	26RGasMed	27RTibAnt	28RTibPost	29RPeroneusLong	30RSol	31RExtDigLong	32RFlexDigLong
30.022	0.056458	1.0556	0.13657	-0.000763	-0.02594	0.20721	0.003052	0.005341	-0.12375	-0.15823	0.005951	0.026245	-0.33783	0.087891	0.048218	0.025482	0.007172	-0.49454	-0.54657	0.33356	-0.32089	0.19516	0.77515	0.04715	0.021973	0.007172	-0.19913	0.000458	-0.042419	-0.20538	-0.002899	-0.024719
30.023	0.036926	1.0567	0.03479	-0.013733	0.043945	0.28046	0.032501	0.032959	-0.1178	-0.13016	-0.003052	0.028839	-0.30167	0.10361	0.086517	0.007019	-0.030975	-0.38361	-0.42358	0.21194	-0.28351	0.28214	0.73151	0.091553	0.014496	0.006104	-0.33829	0.003052	0.067902	-0.17685	0	-0.028229
30.024	0.032654	1.0689	-0.079041	-0.000305	0.014496	0.25589	0.017395	0.031586	-0.1593	-0.15533	0.021362	0.036469	-0.41245	0.15945	0.0914	0.008698	-0.080872	-0.22583	-0.26138	0.044403	-0.25711	0.3154	0.62164	0.15015	0.049591	0.015717	0.097961	-0.001373	0.056915	-0.14435	-0.002136	-0.017548
30.025	0.02533	1.0573	-0.1619	-0.021667	0.033569	0.10574	-0.040131	0.03006	-0.20691	-0.078125	0.010529	0.037537	-0.26932	0.1561	0.030823	-0.00412	-0.076599	-0.026855	-0.61554	-0.009308	-0.22522	0.41794	0.6723	0.18143	0.044708	0.005646	0.51376	0.009003	0.038147	-0.11276	0.002747	-0.018768
30.026	0.021667	1.0785	-0.11765	-0.006561	0.066223	-0.028076	-0.14069	0.027008	-0.13641	-0.018463	-0.013123	0.058899	0.23666	0.11322	-0.005493	0.029449	-0.1088	0.17685	-1.1858	-0.043488	-0.095978	0.36514	0.60165	0.13687	0.040588	0.005035	0.21881	-0.00061	-0.16571	-0.043335	-0.002136	-0.021057
30.027	0.025787	1.0236	-0.022736	0.006561	-0.013733	-0.039978	-0.23041	0.02243	-0.03479	0.11002	-0.005798	0.059204	0.75104	0.018311	-0.016327	0.02121	-0.14053	0.40298	-1.2517	-0.081177	-0.003204	0.24292	0.55527	0.11917	0.008087	0.001373	0.037079	-0.001068	-0.16098	-0.079956	-0.001373	-0.023956
30.028	0.015259	1.0289	0.098572	0.023041	-0.053253	-0.06546	-0.19196	0.022278	0.011139	0.19196	-0.017548	0.062714	0.89905	0.061951	-0.023041	0.018616	-0.19104	0.61218	-0.76904	-0.068207	-0.042572	0.28214	0.57404	0.20508	0.0354	0.003815	-0.010071	-0.002136	-0.11566	-0.103	0.000305	-0.028381
30.029	0.019836	0.98053	0.11841	0.007629	-0.054626	-0.069122	-0.1564	0.002289	0.039368	0.20508	0.001831	0.066071	0.09079	0.13153	0.020142	-0.012054	-0.18738	0.76767	-0.87555	-0.068207	-0.08194	0.21881	0.61478	0.16617	0	0.013885	-0.034637	-0.001831	-0.021057	-0.14526	-0.006104	-0.021973
30.03	0.03479	0.94269	0.080109	0.003662	-0.067749	-0.15671	-0.11856	-0.005951	0.075073	0.17654	-0.00061	0.07309	-0.57388	0.15045	-0.000153	-0.001373	-0.11765	0.93033	-0.88638	-0.1506	-0.1413	0.16556	0.79605	0.10315	-0.013123	0.011902	0.15167	-0.004883	-0.045013	-0.17242	-0.000916	-0.028076
30.031	0.03891	0.94315	0.099945	-0.001373	0.044403	-0.072937	-0.1004	0.003204	0.052185	0.17319	0.021057	0.070953	-0.25604	0.053711	-0.067139	-0.01358	-0.032654	1.1258	-0.54504	-0.16998	-0.12314	0.05722	0.96435	0.055542	-0.038452	0.007782	0.24826	-0.001373	-0.15533	-0.14603	-0.004272	-0.028534
30.032	0.028381	0.87082	0.076141	0.003967	0.043488	-0.004425	-0.09964	-0.011139	0.055237	0.15518	0.03067	0.071564	0.074768	0.084534	-0.058289	0.006104	0.039673	1.3998	-0.71564	-0.09201	-0.13641	-0.047913	0.91187	-0.025482	-0.063477	-0.000916	0.18112	-0.001068	-0.18509	-0.13443	0.002747	-0.025024
30.033	0.017395	0.81833	0.055695	0.008392	0.000763	0.099487	-0.099487	-0.02533	0.060425	0.15839	0.017853	0.064392	-0.61676	-0.057068	-0.054016	0.006256	0.065002	1.5305	-1.1826	-0.034943	-0.20416	-0.032196	0.86014	-0.084991	-0.081787	0.001068	0.121	-0.005188	-0.092163	-0.13947	-0.00351	-0.018616
30.034	0.002899	0.71732	-0.006714	0.00061	-0.038452	0.24475	-0.13107	-0.012207	0.090942	0.11261	-0.008698	0.065155	-0.44464	-0.072174	-0.076294	-0.003204	0.13001	1.6347	-0.96954	0.050507	-0.24475	-0.053406	0.89523	-0.088501	-0.049896	0.005798	0.028839	0	-0.016785	-0.18051	0.003204	-0.005341
30.035	-0.011749	0.62317	-0.026093	-0.006866	-0.075226	0.31815	-0.16357	-0.006104	0.11612	0.12878	-0.017395	0.053558	0.028687	-0.18112	-0.13641	0.009766	0.16571	1.714	-1.2813	0.10956	-0.26855	-0.03067	0.77972	-0.12665	-0.005951	0.003815	0.05249	-0.005188	-0.006256	-0.17944	-0.000305	-0.013123
30.036	-0.024719	0.51971	-0.070343	-0.006714	-0.0383	0.36224	-0.23941	0.002441	0.19012	0.13962	0.008545	0.046997	0.004883	-0.13977	-0.040894	-0.000763	0.16129	1.8404	-1.2508	0.11917	-0.27786	-0.020447	0.75958	-0.1326	-0.01236	-0.007019	0.093842	-0.001984	-0.033722	-0.16083	0.000153	-0.016327
30.037	-0.028229	0.35324	-0.16937	-0.001373	-0.044098	0.29327	-0.25436	0.006104	0.2829	0.10757	0.029144	0.041351	-0.019836	0.039063	0.054779	-0.01236	0.078125	1.9305	-1.1513	0.1239	-0.31616	-0.046387	0.69977	-0.1593	-0.006714	-0.007782	0.20462	-0.006409	-0.037384	-0.14236	0.001526	-0.010071
30.038	-0.023499	0.21973	-0.14008	-0.005035	-0.099487	0.14252	-0.2063	0.01297	0.3009	0.075073	0.036316	0.03006	-0.10971	0.066071	0.019836	-0.003662	-0.01236	2.0317	-1.0712	0.067444	-0.26611	0.07309	0.69031	-0.16495	0.003204	-0.005341	-0.019073	-0.014496	0.032501	-0.14893	-0.002747	-0.007019
30.039	-0.007629	0.12299	-0.20844	-0.006561	-0.13672	-0.032196	-0.14175	0.007477	0.25421	0.044708	-0.006256	0.024872	0.013885	0.032349	-0.077972	0.001373	-0.089569	2.188	-1.0616	0.049591	-0.2533	0.096283	0.70038	-0.14984	0.019989	-0.005646	-0.33142	-0.004883	0.14771	-0.1712	0.001068	-0.00412
30.04	0.00473	0.010071	-0.1738	0.011902	-0.10239	-0.30228	-0.094452	0.005798	0.29663	0.000458	-0.025482	0.023651	0.24384	0.001831	-0.1297	-0.001221	-0.048218	2.3343	-1.3042	0.020294	-0.25375	-0.081024	0.88974	-0.099182	0.028229	0.001526	-0.25864	-0.009308	0.15045	-0.17639	-0.00061	0.000153
30.041	0.003052	-0.15747	-0.16586	-0.010223	-0.043793	-0.45273	-0.066681	0.00351	0.30014	-0.019379	-0.000305	0.024109	0.25833	-0.038605	-0.094452	-0.012054	0.054626	2.4937	-1.1455	-0.086212	-0.27084	-0.066223	1.1684	-0.009766	0.007324	-0.010376	-0.10178	-0.001068	0.11124	-0.17334	-0.000763	0.007172
30.042	0.00412	-0.27878	-0.030365	-0.009613	0.007172	-0.40695	-0.010681	-0.004578	0.24109	0.066376	0.030823	0.017242	-0.010834	0.006409	0.012665	-0.016785	0.070343	2.7405	-1.252	-0.12192	-0.3154	0.13763	1.2122	0.039825	0.037384	-0.021362	0.035095	-0.000305	0.042877	-0.19638	0.001068	0.001831
30.043	-0.013733	-0.3949	-0.035095	-0.001068	-0.036621	-0.13763	-0.040131	0.002899	0.16998	0.159	0.039978	0.023651	-0.16342	0.025177	0.068207	-0.014343	0.054474	2.8596	-0.98862	-0.12497	-0.33844	0.30289	1.187	0.063934	0.025787	-0.016174	0.16419	-0.004883	0.011292	-0.20813	-0.001068	0.005646
30.044	-0.024109	-0.43976	-0.042114	-0.007477	-0.078888	-0.050964	-0.04364	0.015717	0.12894	0.20233	0.026855	0.018005	-0.23529	0.014191	0.091248	-0.010529	0.050507	2.897	-0.88409	-0.16357	-0.40405	0.37338	1.2555	-0.022736	-0.000763	-0.011902	0.56915	-0.007629	0.056305	-0.23102	-0.005798	0.009613
30.045	-0.012054	-0.5069	-0.027313	-0.015106	-0.099792	0.041504	-0.075531	0.014954	0.14908	0.23941	0.001678	0.014343	-0.35568	0.069122	0.087585	-0.00412	0.055084	2.9733	-1.0088	-0.13779	-0.3978	0.26916	1.2454	-0.030212	0.053711	-0.011139	0.5397	-0.010529	-0.032959	-0.23132	-0.008698	0.011139
30.046	-0.00351	-0.60806	0.044403	-0.012054	-0.041809	0.087738	-0.15671	0.011597	0.23727	0.26001	-0.02182	0.010834	-0.14328	0.091705	0.027313	-0.016479	0.028839	3.0145	-0.85159	-0.012817	-0.42053	0.1828	1.1375	-0.004272	0.055389	-0.010071	0.032654	-0.006409	-0.099945	-0.22308	-0.010681	0.013428
30.047	0.004272	-0.6218	-0.15167	0.010071	0.045319	0.18051	-0.1857	0.014038	0.42893	0.091705	0.008698	0.005798	0.62271	0.072327	0.006104	-0.055695	0.039825	2.9015	-0.81879	0.092163	-0.47409	0.11658	1.0144	0.02594	0.058289	-0.010681	-0.32379	-0.003815	-0.074921	-0.21851	-0.007629	-0.001221
30.048	0.007477	-0.62744	-0.13657	0.020294	0.037537	0.36896	-0.13977	0.015259	0.52277	-0.070801	0.04364	-0.000763	0.56778	0.012054	-0.021362	-0.031891	0.13184	2.8186	-0.51315	0.05722	-0.43793	0.024872	0.91919	0.001984	0.09613	-0.015259	-0.32623	-0.00885	-0.1413	-0.12116	-0.003662	-0.002899
30.049	0.005951	-0.58411	-0.069885	0.007324	0.039215	0.46875	-0.13718	0.007629	0.3981	0.007324	0.038147	-0.001678	-0.11093	-0.11276	0.035706	0.062256	0.24674	2.6364	-0.8345	0.062714	-0.35477	-0.06012	0.88226	-0.061493	0.076447	-0.014954	-0.16739	-0.00946	-0.079956	-0.028534	-0.002441	0.000916
30.05	0.002289	-0.55954	0.048218	-0.014954	0.052643	0.4863	-0.12375	0.031738	0.2536	0.059052	0.036774	-0.01236	-0.41565	0.057678	0.090332	0.07782	0.29968	2.4477	-1.1266	-0.076752	-0.27924	-0.065613	0.81512	-0.046234	0.077667	-0.012665	-0.033264	-0.010681	0.065765	-0.11276	-0.003052	-0.006409
30.051	0	-0.57053	0.053253	-0.007782	0.048523	0.30304	-0.12253	0.042877	0.18051	-0.078735	0.013885	-0.010529	0.25971	0.21316	0.056763	-0.005798	0.31265	2.2337	-0.95474	-0.103	-0.33173	-0.035095	0.62973	-0.051575	0.074921	-0.011749	-0.11444	-0.00824	0.43472	-0.16693	0.003357	-0.006409
30.052	-0.000153	-0.54459	0.000305	-0.008087	-0.016937	-0.23254	-0.17731	0.031281	0.25375	-0.053253	-0.02243	-0.012054	0.35904	0.31601	-0.023193	-0.005493	0.23102	2.1054	-0.48065	-0.084534	-0.38879	0.015259	0.48126	-0.029602	0.089417	-0.011292	-0.045319	-0.007935	-0.08316	-0.15686	-0.000763	-0.012512
30.053	0.012512	-0.45883	0.098724	0.006561	-0.063324	-0.71198	-0.15595	0.02243	0.2243	0.018005	-0.004883	-0.011292	0.072937	0.11398	-0.058899	0.001678	0.097504	1.8874	-0.15198	-0.028076	-0.42954	0.050964	0.35721	-0.011444	0.10834	-0.016632	0.059662	-0.010223	-0.43793	-0.12528	0.002136	-0.013123
30.054	0.032654	-0.55344	0.11993	0.017548	-0.055695	-0.54352	-0.21164	0.01709	0.19424	0.031433	-0.025787	-0.011597	-0.62118	-0.046234	-0.00885	0.00351	-0.041199	1.6299	-0.90164	0.044708	-0.45746	0.062256	0.40359	0.019073	0.098877	-0.0177	-0.016785	-0.008698	-0.20035	-0.12024	-0.000916	-0.014954
30.055	0.021667	-0.6308	0.038147	0.002594	-0.061646	-0.27756	-0.22247	-0.011749	0.25467	-0.028534	-0.026245	-0.025177	-0.41596	-0.016479	-0.1062	0.004425	-0.11612	1.4046	-0.65277	0.12405	-0.45654	0.073547	0.1712	-0.026703	0.077515	-0.024261	0.000916	-0.001984	-0.12955	-0.077362	0.004425	-0.00946
